# xmcd
#
# Track frame offsets:
#	150
#	15201
#	30718
#	44650
#	58618
#	75746
#	85675
#	108000
#	121572
#	136067
#	150336
#
# Disc length: 2198 seconds
#
# Revision: 1
# Processed by: cddbd v1.5.1PL2 Copyright (c) Steve Scherf et al.
# Submitted via: audiograbber 1.81.02
#
DISCID=6e08940b
DTITLE=Diamond Jack  - Traveller
DYEAR=2005
DGENRE=Dance
TTITLE0=Heartbreaker
TTITLE1=Kiss You All Over
TTITLE2=All Over Now
TTITLE3=Homely Girl
TTITLE4=Maggie May
TTITLE5=All My Loving
TTITLE6=Arthurs Reel
TTITLE7=Sweet Little Sixteen
TTITLE8=Spirit In The Sky
TTITLE9=Mrs Robinson
TTITLE10=Secret Love
EXTD=Encoded By: DJ On Line
EXTT0=
EXTT1=
EXTT2=
EXTT3=
EXTT4=
EXTT5=
EXTT6=
EXTT7=
EXTT8=
EXTT9=
EXTT10=
PLAYORDER=
